<svg width="710" height="790" viewBox="0 0 710 790" fill="none" xmlns="http://www.w3.org/2000/svg">
<path d="M469.834 460.268H319.395C316.849 460.268 314.766 458.185 314.766 455.639C314.766 453.093 316.849 451.01 319.395 451.01H469.834C472.38 451.01 474.463 453.093 474.463 455.639C474.463 458.185 472.38 460.268 469.834 460.268Z" fill="#274DA0"/>
<path d="M344.078 495.03V459.541H334.82V495.03H344.078Z" fill="#274DA0"/>
<path d="M453.629 495.03V459.541H444.371V495.03H453.629Z" fill="#274DA0"/>
<path d="M125.367 553.231V394.46H188.937V280.126H297.408V553.231H125.367Z" fill="#CCDAFE"/>
<path d="M221.957 299.027H199.738V316.771H221.957V299.027Z" fill="#A8BEEF"/>
<path d="M255.285 299.027H233.066V316.771H255.285V299.027Z" fill="#A8BEEF"/>
<path d="M288.613 299.027H266.395V316.771H288.613V299.027Z" fill="#A8BEEF"/>
<path d="M221.957 326.801H199.738V344.545H221.957V326.801Z" fill="#A8BEEF"/>
<path d="M255.285 326.801H233.066V344.545H255.285V326.801Z" fill="#A8BEEF"/>
<path d="M288.613 326.801H266.395V344.545H288.613V326.801Z" fill="#A8BEEF"/>
<path d="M221.957 354.497H199.738V372.241H221.957V354.497Z" fill="#A8BEEF"/>
<path d="M255.285 354.497H233.066V372.241H255.285V354.497Z" fill="#A8BEEF"/>
<path d="M288.613 354.497H266.395V372.241H288.613V354.497Z" fill="#A8BEEF"/>
<path d="M221.957 382.271H199.738V400.015H221.957V382.271Z" fill="#A8BEEF"/>
<path d="M255.285 382.271H233.066V400.015H255.285V382.271Z" fill="#A8BEEF"/>
<path d="M288.613 382.271H266.395V400.015H288.613V382.271Z" fill="#A8BEEF"/>
<path d="M221.957 410.044H199.738V427.788H221.957V410.044Z" fill="#A8BEEF"/>
<path d="M188.629 410.044H166.41V427.788H188.629V410.044Z" fill="#A8BEEF"/>
<path d="M155.379 410.044H133.16V427.788H155.379V410.044Z" fill="#A8BEEF"/>
<path d="M255.285 410.044H233.066V427.788H255.285V410.044Z" fill="#A8BEEF"/>
<path d="M288.613 410.044H266.395V427.788H288.613V410.044Z" fill="#A8BEEF"/>
<path d="M221.957 437.817H199.738V455.562H221.957V437.817Z" fill="#A8BEEF"/>
<path d="M188.629 437.817H166.41V455.562H188.629V437.817Z" fill="#A8BEEF"/>
<path d="M155.379 437.817H133.16V455.562H155.379V437.817Z" fill="#A8BEEF"/>
<path d="M255.285 437.817H233.066V455.562H255.285V437.817Z" fill="#A8BEEF"/>
<path d="M288.613 437.817H266.395V455.562H288.613V437.817Z" fill="#A8BEEF"/>
<path d="M221.957 465.514H199.738V483.258H221.957V465.514Z" fill="#A8BEEF"/>
<path d="M188.629 465.514H166.41V483.258H188.629V465.514Z" fill="#A8BEEF"/>
<path d="M155.379 465.514H133.16V483.258H155.379V465.514Z" fill="#A8BEEF"/>
<path d="M255.285 465.514H233.066V483.258H255.285V465.514Z" fill="#A8BEEF"/>
<path d="M288.613 465.514H266.395V483.258H288.613V465.514Z" fill="#A8BEEF"/>
<path d="M221.957 493.287H199.738V511.031H221.957V493.287Z" fill="#A8BEEF"/>
<path d="M188.629 493.287H166.41V511.031H188.629V493.287Z" fill="#A8BEEF"/>
<path d="M155.379 493.287H133.16V511.031H155.379V493.287Z" fill="#A8BEEF"/>
<path d="M255.285 493.287H233.066V511.031H255.285V493.287Z" fill="#A8BEEF"/>
<path d="M288.613 493.287H266.395V511.031H288.613V493.287Z" fill="#A8BEEF"/>
<path d="M489.508 551.071V451.087H538.343V335.673H612.791V390.062H656.071V551.071H489.508Z" fill="#CCDAFE"/>
<path d="M571.67 350.1H549.451V367.844H571.67V350.1Z" fill="#A8BEEF"/>
<path d="M602.762 350.1H580.543V367.844H602.762V350.1Z" fill="#A8BEEF"/>
<path d="M571.67 461.116H549.451V478.86H571.67V461.116Z" fill="#A8BEEF"/>
<path d="M540.58 461.116H518.361V478.86H540.58V461.116Z" fill="#A8BEEF"/>
<path d="M540.58 488.89H518.361V506.634H540.58V488.89Z" fill="#A8BEEF"/>
<path d="M602.762 461.116H580.543V478.86H602.762V461.116Z" fill="#A8BEEF"/>
<path d="M571.67 377.873H549.451V395.617H571.67V377.873Z" fill="#A8BEEF"/>
<path d="M602.762 377.873H580.543V395.617H602.762V377.873Z" fill="#A8BEEF"/>
<path d="M571.67 405.569H549.451V423.313H571.67V405.569Z" fill="#A8BEEF"/>
<path d="M602.762 405.569H580.543V423.313H602.762V405.569Z" fill="#A8BEEF"/>
<path d="M633.852 405.569H611.633V423.313H633.852V405.569Z" fill="#A8BEEF"/>
<path d="M633.852 433.343H611.633V451.087H633.852V433.343Z" fill="#A8BEEF"/>
<path d="M633.852 461.116H611.633V478.86H633.852V461.116Z" fill="#A8BEEF"/>
<path d="M633.852 488.89H611.633V506.634H633.852V488.89Z" fill="#A8BEEF"/>
<path d="M571.67 433.343H549.451V451.087H571.67V433.343Z" fill="#A8BEEF"/>
<path d="M602.762 433.343H580.543V451.087H602.762V433.343Z" fill="#A8BEEF"/>
<path d="M571.67 488.89H549.451V506.634H571.67V488.89Z" fill="#A8BEEF"/>
<path d="M602.762 488.89H580.543V506.634H602.762V488.89Z" fill="#A8BEEF"/>
<path d="M70.9766 579.925C70.9766 579.925 197.577 478.861 388.52 478.861C568.353 478.861 718.252 579.925 718.252 579.925C718.252 579.925 667.72 560.869 560.561 558.864C501.696 557.783 458.416 577.765 386.282 577.765C318.546 577.765 270.714 568.43 198.657 565.575C131.847 562.798 70.9766 579.925 70.9766 579.925Z" fill="url(#paint0_linear_103_1058)"/>
<path d="M330.736 481.946C326.493 484.878 324.102 488.195 324.102 491.59C324.102 504.782 358.664 515.429 401.25 515.429C443.836 515.429 478.398 504.705 478.398 491.59C478.398 489.893 477.781 488.195 476.624 486.498C448.465 481.715 418.917 478.783 388.443 478.783C368.462 478.86 349.175 480.018 330.736 481.946Z" fill="url(#paint1_linear_103_1058)"/>
<path d="M267.06 544.924C286.195 539.313 300.171 529.527 298.276 523.067C296.382 516.607 279.334 515.919 260.2 521.53C241.065 527.141 227.088 536.927 228.983 543.387C230.877 549.847 247.925 550.535 267.06 544.924Z" fill="#3B6CE4"/>
<path d="M452.937 556.248C454.457 551.277 445.713 544.198 433.408 540.437C421.103 536.675 409.896 537.656 408.376 542.627C406.857 547.598 415.6 554.677 427.906 558.438C440.211 562.199 451.418 561.219 452.937 556.248Z" fill="#3B6CE4"/>
<path d="M577.996 485.032C581.776 481.098 583.705 475.929 582.934 470.683C582.008 464.356 577.456 459.419 571.207 456.95C571.361 455.561 571.361 454.096 571.053 452.63C569.587 445.609 562.721 441.058 555.777 442.523C548.834 443.989 544.359 450.855 545.825 457.876C545.979 458.802 546.288 459.65 546.674 460.422C541.351 464.588 538.265 470.76 539.19 477.086C539.653 480.018 540.811 482.641 542.662 484.878C538.65 487.501 536.182 491.05 536.182 494.907C536.182 503.008 546.982 509.565 560.252 509.565C573.521 509.565 584.322 503.008 584.322 494.907C584.322 491.127 581.931 487.655 577.996 485.032Z" fill="url(#paint2_linear_103_1058)"/>
<path d="M559.712 530.01C559.018 529.624 558.555 528.081 558.787 526.692C562.181 499.227 559.79 484.415 558.632 479.4C558.324 478.166 558.555 476.777 559.095 476.006C559.79 475.003 560.715 475.466 561.101 477.086C562.49 483.258 565.036 499.382 561.41 528.081C561.255 529.547 560.484 530.473 559.712 530.01Z" fill="#FF7F2A"/>
<path d="M621.121 521.06C623.281 518.823 624.361 515.892 623.976 512.883C623.436 509.257 620.812 506.479 617.264 505.014C617.341 504.242 617.341 503.393 617.187 502.545C616.338 498.533 612.403 495.987 608.469 496.759C604.457 497.607 601.988 501.542 602.837 505.554C602.914 506.094 603.068 506.557 603.3 507.019C600.214 509.411 598.517 512.883 599.057 516.509C599.288 518.206 599.982 519.672 601.062 520.983C598.748 522.449 597.359 524.455 597.359 526.692C597.359 531.321 603.531 535.024 611.092 535.024C618.652 535.024 624.824 531.244 624.824 526.692C624.67 524.532 623.358 522.526 621.121 521.06Z" fill="url(#paint3_linear_103_1058)"/>
<path d="M610.706 546.751C610.32 546.52 610.089 545.671 610.166 544.822C612.095 529.161 610.783 520.752 610.089 517.82C609.935 517.126 610.012 516.355 610.32 515.892C610.706 515.274 611.246 515.583 611.478 516.509C612.249 519.981 613.715 529.238 611.632 545.594C611.555 546.442 611.092 546.982 610.706 546.751Z" fill="#FF7F2A"/>
<path d="M552.692 426.477H236.538C232.218 426.477 228.746 423.005 228.746 418.685V218.253C228.746 213.933 232.218 210.461 236.538 210.461H552.692C557.013 210.461 560.484 213.933 560.484 218.253V418.685C560.484 423.005 556.936 426.477 552.692 426.477Z" fill="#3B6CE4"/>
<path d="M560.484 249.035H228.746V218.176C228.746 213.933 232.218 210.461 236.461 210.461H552.77C557.013 210.461 560.484 213.933 560.484 218.176V249.035Z" fill="#5D94FA"/>
<path d="M261.148 236.691H250.348C246.953 236.691 244.176 233.914 244.176 230.52C244.176 227.125 246.953 224.348 250.348 224.348H261.148C264.543 224.348 267.32 227.125 267.32 230.52C267.32 233.914 264.543 236.691 261.148 236.691Z" fill="white"/>
<path d="M489.508 236.691H281.207C277.812 236.691 275.035 233.914 275.035 230.52C275.035 227.125 277.812 224.348 281.207 224.348H489.585C492.979 224.348 495.757 227.125 495.757 230.52C495.68 233.914 492.979 236.691 489.508 236.691Z" fill="white"/>
<path d="M528.006 221.262C530.136 221.262 531.863 219.535 531.863 217.404C531.863 215.274 530.136 213.547 528.006 213.547C525.875 213.547 524.148 215.274 524.148 217.404C524.148 219.535 525.875 221.262 528.006 221.262Z" fill="white"/>
<path d="M540.35 221.262C542.48 221.262 544.207 219.535 544.207 217.404C544.207 215.274 542.48 213.547 540.35 213.547C538.219 213.547 536.492 215.274 536.492 217.404C536.492 219.535 538.219 221.262 540.35 221.262Z" fill="white"/>
<path d="M552.693 221.262C554.824 221.262 556.551 219.535 556.551 217.404C556.551 215.274 554.824 213.547 552.693 213.547C550.563 213.547 548.836 215.274 548.836 217.404C548.836 219.535 550.563 221.262 552.693 221.262Z" fill="white"/>
<path d="M356.35 359.666H345.78V382.656H329.348V359.666H291.545V347.708L324.642 294.013H345.78V346.319H356.35V359.666ZM329.348 346.242V328.112C329.348 322.943 329.811 314.92 330.042 309.751H329.579C327.419 314.457 325.027 319.317 322.481 324.178L308.672 346.242H329.348Z" fill="#285BBF"/>
<path d="M364.99 337.987C364.99 307.282 376.948 292.315 395.078 292.315C413.054 292.315 425.089 307.437 425.089 337.987C425.089 368.538 413.131 384.354 395.078 384.354C376.948 384.354 364.99 368.538 364.99 337.987ZM408.348 337.987C408.348 313.146 402.562 305.971 395.001 305.971C387.363 305.971 381.577 313.146 381.577 337.987C381.577 362.906 387.363 370.621 395.001 370.621C402.639 370.544 408.348 362.906 408.348 337.987Z" fill="#285BBF"/>
<path d="M497.609 359.666H487.04V382.656H470.607V359.666H432.805V347.708L465.901 294.013H487.04V346.319H497.609V359.666ZM470.607 346.242V328.112C470.607 322.943 471.07 314.92 471.302 309.751H470.839C468.679 314.457 466.287 319.317 463.741 324.178L449.932 346.242H470.607Z" fill="#285BBF"/>
<path d="M356.195 354.729H345.626V377.719H329.193V354.729H291.391V342.77L324.487 289.075H345.626V341.382H356.195V354.729ZM329.193 341.305V323.175C329.193 318.006 329.656 309.982 329.888 304.813H329.425C327.265 309.52 324.873 314.38 322.327 319.24L308.595 341.305H329.193Z" fill="white"/>
<path d="M364.836 332.973C364.836 302.268 376.794 287.301 394.924 287.301C412.899 287.301 424.935 302.422 424.935 332.973C424.935 363.523 412.977 379.339 394.924 379.339C376.794 379.416 364.836 363.601 364.836 332.973ZM408.193 332.973C408.193 308.131 402.407 300.956 394.847 300.956C387.209 300.956 381.423 308.131 381.423 332.973C381.423 357.892 387.209 365.606 394.847 365.606C402.484 365.606 408.193 357.969 408.193 332.973Z" fill="white"/>
<path d="M497.453 354.729H486.884V377.719H470.451V354.729H432.648V342.77L465.745 289.075H486.884V341.382H497.453V354.729ZM470.451 341.305V323.175C470.451 318.006 470.914 309.982 471.146 304.813H470.683C468.522 309.52 466.131 314.38 463.585 319.24L449.775 341.305H470.451Z" fill="white"/>
<path d="M491.204 281.592C490.356 281.283 489.507 281.746 489.198 282.595C488.89 283.443 489.275 284.292 490.047 284.601C490.896 284.909 491.744 284.446 492.053 283.598C492.439 282.749 492.053 281.9 491.204 281.592Z" fill="#285BBF"/>
<path d="M496.99 276.5C497.685 274.494 496.682 273.028 494.83 272.334C493.441 271.871 492.13 272.103 490.973 272.72L491.821 274.34C492.516 274.031 493.21 273.877 493.904 274.108C494.753 274.417 495.062 275.111 494.753 275.883C494.213 277.349 491.204 277.426 490.664 280.049L492.67 280.743C493.21 278.506 496.219 278.737 496.99 276.5Z" fill="#285BBF"/>
<path d="M507.098 282.672C506.326 281.438 505.092 280.82 503.78 280.666L503.472 282.44C504.243 282.595 504.86 282.826 505.246 283.443C505.709 284.138 505.555 284.909 504.86 285.372C503.549 286.221 501.08 284.446 499.074 286.298L500.231 288.072C502.083 286.606 504.32 288.535 506.326 287.301C508.101 286.144 508.178 284.369 507.098 282.672Z" fill="#285BBF"/>
<path d="M496.449 287.532C495.678 287.995 495.446 288.921 495.909 289.692C496.372 290.464 497.298 290.618 498.07 290.078C498.841 289.615 499.072 288.689 498.532 287.918C498.147 287.224 497.221 287.069 496.449 287.532Z" fill="#285BBF"/>
<path d="M479.941 280.897C479.092 281.052 478.629 281.9 478.783 282.826C479.015 283.675 479.786 284.215 480.635 284.06C481.484 283.906 481.946 283.058 481.792 282.132C481.561 281.283 480.789 280.743 479.941 280.897Z" fill="#285BBF"/>
<path d="M478.012 271.177C476.623 271.485 475.62 272.411 474.926 273.568L476.546 274.494C476.932 273.877 477.472 273.337 478.166 273.183C479.015 273.028 479.632 273.414 479.863 274.186C480.249 275.729 477.703 277.426 478.629 279.972L480.712 279.509C479.94 277.271 482.641 275.883 482.101 273.568C481.638 271.408 479.94 270.714 478.012 271.177Z" fill="#285BBF"/>
<path d="M491.204 280.589C490.356 280.28 489.507 280.743 489.198 281.592C488.89 282.44 489.275 283.289 490.047 283.598C490.896 283.906 491.744 283.443 492.053 282.595C492.439 281.823 492.053 280.897 491.204 280.589Z" fill="#EFBB81"/>
<path d="M496.99 275.574C497.685 273.568 496.682 272.103 494.83 271.408C493.441 270.945 492.13 271.177 490.973 271.794L491.821 273.414C492.516 273.105 493.21 272.951 493.904 273.183C494.753 273.491 495.062 274.186 494.753 274.957C494.213 276.423 491.204 276.5 490.664 279.123L492.67 279.817C493.21 277.503 496.219 277.734 496.99 275.574Z" fill="#EFBB81"/>
<path d="M507.098 281.746C506.326 280.512 505.092 279.895 503.78 279.74L503.472 281.515C504.243 281.669 504.86 281.9 505.246 282.518C505.709 283.212 505.555 283.983 504.86 284.446C503.549 285.295 501.08 283.52 499.074 285.372L500.231 287.146C502.083 285.681 504.32 287.609 506.326 286.375C508.101 285.141 508.178 283.366 507.098 281.746Z" fill="#EFBB81"/>
<path d="M496.449 286.529C495.678 286.992 495.446 287.918 495.909 288.689C496.372 289.461 497.298 289.615 498.07 289.075C498.841 288.612 499.072 287.686 498.532 286.915C498.147 286.221 497.221 286.066 496.449 286.529Z" fill="#EFBB81"/>
<path d="M479.941 279.894C479.092 280.049 478.629 280.897 478.783 281.823C479.015 282.672 479.786 283.212 480.635 283.058C481.484 282.903 481.946 282.055 481.792 281.129C481.561 280.28 480.789 279.74 479.941 279.894Z" fill="#EFBB81"/>
<path d="M478.012 270.174C476.623 270.482 475.62 271.408 474.926 272.565L476.546 273.491C476.932 272.874 477.472 272.334 478.166 272.18C479.015 272.025 479.632 272.411 479.863 273.183C480.249 274.726 477.703 276.423 478.629 278.969L480.712 278.506C479.94 276.269 482.641 274.88 482.101 272.565C481.638 270.405 479.94 269.711 478.012 270.174Z" fill="#EFBB81"/>
<path d="M423.931 444.684H365.221C364.372 444.684 363.678 443.989 363.678 443.141V410.661C363.678 409.812 364.372 409.118 365.221 409.118H423.931C424.779 409.118 425.474 409.812 425.474 410.661V443.141C425.474 443.989 424.779 444.684 423.931 444.684Z" fill="#353535"/>
<path d="M423.932 411.51H365.299V442.369H423.932V411.51Z" fill="white"/>
<path d="M392.453 431.954H399.396V443.835H391.836L392.453 431.954Z" fill="#FDCACA"/>
<path d="M386.976 424.702C386.976 424.702 385.124 424.471 384.97 425.705C384.739 426.94 385.356 429.563 385.819 429.948C386.59 430.797 388.288 429.177 388.288 429.177L386.976 424.702Z" fill="#FDCACA"/>
<path d="M401.557 429.254C401.557 429.254 403.563 430.488 404.411 429.871C405.26 429.254 405.8 427.248 405.8 426.4C405.8 425.551 406.031 424.779 404.951 424.779C403.871 424.779 403.331 424.548 403.1 424.779C402.868 425.011 401.557 429.254 401.557 429.254Z" fill="#FDCACA"/>
<path d="M378.566 476.623C378.566 476.623 369.154 471.917 365.528 474.617C361.825 477.24 361.054 478.089 360.668 479.709C360.282 481.329 364.757 492.979 366.377 494.984C367.997 496.99 372.086 501.542 372.935 504.397C373.783 507.251 376.638 516.432 381.112 517.049C385.587 517.666 404.103 520.289 408.191 518.052C412.28 515.815 414.518 512.574 415.135 511.34C415.752 510.106 416.138 507.097 417.989 504.397C419.841 501.774 423.467 496.836 424.547 494.444C425.55 491.976 427.401 485.495 427.401 483.875C427.401 482.255 424.315 477.78 423.158 476.932C421.924 476.083 416.215 478.938 415.443 480.172C414.672 481.406 378.566 481.406 378.566 481.406V476.623Z" fill="#274DA0"/>
<path d="M406.109 406.495C402.715 400.941 396.003 406.804 395.54 407.267C395.077 407.73 392.763 405.415 387.517 408.27C383.968 410.198 384.045 411.433 383.582 417.759C383.119 424.085 385.974 425.165 385.974 425.165C385.974 425.165 386.359 425.165 386.977 425.242C386.977 426.554 386.977 428.02 387.054 429.023C387.054 429.023 387.362 432.649 389.985 434.654C391.914 436.043 393.071 436.429 394.769 436.583C397.083 436.737 399.86 436.043 401.789 433.034C402.329 432.186 402.483 430.18 402.483 430.18L403.563 424.625C406.109 423.699 409.504 411.973 406.109 406.495Z" fill="#63393F"/>
<path d="M428.328 473.615C427.325 470.143 424.625 462.274 424.625 462.274C423.699 458.648 421.23 453.787 420.921 453.402C420.536 452.784 418.838 447.23 416.37 446.227C411.664 444.298 407.266 442.601 406.032 440.981C404.797 439.361 402.02 437.895 402.02 437.895C402.02 437.895 397.854 438.666 394.382 438.435C391.065 438.203 389.908 437.432 389.136 437.741C388.905 437.818 387.979 439.746 386.359 440.595C384.739 441.444 383.119 440.209 372.472 447.307C372.472 447.307 369.849 448.31 367.766 454.405C367.226 456.102 366.918 457.336 366.686 458.185C366.686 458.185 363.214 469.526 362.211 472.92C361.671 474.695 362.289 475.775 362.983 476.392C363.6 475.852 364.449 475.235 365.452 474.54C368.075 472.689 373.475 474.463 376.484 475.698C376.484 478.706 377.487 482.409 374.864 487.81C372.241 493.287 374.015 506.325 376.484 509.643C378.953 512.883 382.424 515.738 383.196 515.738C383.196 515.738 399.474 517.743 404.566 516.586C409.658 515.352 413.515 506.788 414.132 505.554C414.75 504.32 418.376 497.608 416.987 493.905C415.598 490.201 413.129 488.581 413.129 488.581C413.129 488.581 413.515 484.801 413.901 480.326C414.595 480.249 415.058 480.095 415.135 480.018C415.984 478.783 421.693 475.929 422.85 476.778C423.236 477.009 423.699 477.549 424.316 478.321L426.09 477.858C426.168 477.858 429.331 477.086 428.328 473.615ZM375.018 466.363C375.25 467.288 375.944 469.911 376.253 472.534L373.167 470.914L375.018 466.363ZM414.75 472.997C415.058 469.68 415.29 466.98 415.29 466.671C415.29 466.517 415.29 466.44 415.367 466.44L417.45 471.609L414.75 472.997Z" fill="#DBEEFE"/>
<path d="M395.231 441.366C395.231 441.366 399.706 441.444 401.558 440.904C403.409 440.363 404.566 439.515 404.566 439.515L402.098 437.972C402.098 437.972 398.549 438.589 395.771 438.512C392.994 438.512 389.214 437.432 389.214 437.586C389.214 437.74 387.131 439.978 387.131 439.978C387.131 439.978 392.531 441.289 395.231 441.366Z" fill="#B9D8ED"/>
<path d="M372.857 476.315L376.715 480.944V479.709L376.638 477.78L372.857 476.315Z" fill="#173872"/>
<path d="M413.824 482.872L416.139 481.329L413.67 484.415L413.824 482.872Z" fill="#173872"/>
<path d="M373.398 470.297L370.004 471.917L374.401 471.532L373.244 470.914L373.398 470.297Z" fill="#B9D8ED"/>
<path d="M416.909 470.297L419.995 471.994H416.523L417.372 471.532L416.909 470.297Z" fill="#B9D8ED"/>
<path d="M374.863 466.903L375.017 466.363L375.172 466.903L374.863 460.114V466.903Z" fill="#B9D8ED"/>
<path d="M415.213 467.365L414.75 457.568L415.753 467.597L415.29 466.44L415.213 467.365Z" fill="#B9D8ED"/>
<defs>
<linearGradient id="paint0_linear_103_1058" x1="388.254" y1="480.058" x2="394.702" y2="581.662" gradientUnits="userSpaceOnUse">
<stop stop-color="#91B3FF"/>
<stop offset="0.4022" stop-color="#6791F2"/>
<stop offset="0.7939" stop-color="#3B6CE4"/>
</linearGradient>
<linearGradient id="paint1_linear_103_1058" x1="400.371" y1="477.755" x2="403.444" y2="526.179" gradientUnits="userSpaceOnUse">
<stop stop-color="#91B3FF"/>
<stop offset="0.2484" stop-color="#6795EC"/>
<stop offset="0.7939" stop-color="#004CBF"/>
</linearGradient>
<linearGradient id="paint2_linear_103_1058" x1="573.549" y1="501.494" x2="545.041" y2="462.699" gradientUnits="userSpaceOnUse">
<stop stop-color="#EFBB81"/>
<stop offset="0.5011" stop-color="#F79E57"/>
<stop offset="1" stop-color="#FF7F2A"/>
</linearGradient>
<linearGradient id="paint3_linear_103_1058" x1="618.549" y1="530.447" x2="602.284" y2="508.313" gradientUnits="userSpaceOnUse">
<stop stop-color="#EFBB81"/>
<stop offset="0.5011" stop-color="#F79E57"/>
<stop offset="1" stop-color="#FF7F2A"/>
</linearGradient>
</defs>
</svg>
