<svg width="620" height="620" viewBox="0 0 620 620" fill="none" xmlns="http://www.w3.org/2000/svg">
<path d="M97.3196 482.417C97.3196 482.417 91.4276 487.801 80.0559 500.907C77.22 497.32 74.4872 493.573 71.8592 489.666L39.3745 441.337L85.0481 438.212C141.739 434.333 190.143 459.468 221.964 509.311L254.106 559.656L189.275 557.311C148.441 555.835 112.742 538.568 85.4779 507.423L97.3196 482.417Z" fill="#E0E8FF"/>
<path d="M232.296 545.658C232.237 545.658 232.177 545.644 232.121 545.614L51.0676 447.342C50.8894 447.246 50.823 447.021 50.9191 446.843C51.0152 446.664 51.2389 446.597 51.4171 446.694L232.471 544.966C232.649 545.062 232.715 545.287 232.619 545.465C232.553 545.59 232.425 545.658 232.296 545.658Z" fill="white"/>
<path d="M180.905 465.755C180.905 465.755 176.374 472.333 164.95 485.393C168.873 487.731 172.941 489.947 177.154 492.036L229.25 517.856L226.222 472.035C222.464 415.161 191.148 370.41 137.648 345.452L83.6082 320.242L94.606 384.376C101.532 424.77 123.372 457.946 157.79 480.876L180.905 465.755Z" fill="#F9DBE7"/>
<path d="M222.048 507.189C221.934 507.189 221.822 507.136 221.751 507.038L100.419 340.217C100.301 340.052 100.335 339.822 100.5 339.701C100.664 339.58 100.893 339.617 101.013 339.782L222.345 506.603C222.464 506.768 222.429 506.998 222.265 507.118C222.198 507.166 222.123 507.189 222.048 507.189Z" fill="white"/>
<path d="M436.362 214.127C434.629 214.127 433.222 212.717 433.222 210.977V178.915C433.222 177.177 434.627 175.766 436.362 175.766C438.095 175.766 439.501 177.175 439.501 178.915V210.977C439.501 212.717 438.095 214.127 436.362 214.127Z" fill="#382A73"/>
<path d="M436.362 284.957C434.629 284.957 433.222 283.548 433.222 281.808V228.284C433.222 226.545 434.627 225.134 436.362 225.134C438.095 225.134 439.501 226.543 439.501 228.284V281.808C439.501 283.548 438.095 284.957 436.362 284.957Z" fill="#382A73"/>
<path d="M416.586 583.918H191.672C182.53 583.918 175.118 576.482 175.118 567.312V96.6194C175.118 87.4489 182.53 80.0137 191.672 80.0137H416.586C425.728 80.0137 433.14 87.4489 433.14 96.6194V567.312C433.14 576.484 425.728 583.918 416.586 583.918Z" fill="#D9E1FF"/>
<path d="M178.162 580.545L187.023 580.864H178.162V580.545Z" fill="#7C6ED8"/>
<path d="M178.162 573.091L393.938 580.864H187.023L178.162 580.545V573.091Z" fill="#7C6ED8"/>
<path d="M178.162 565.636L430.096 574.712V580.864H393.938L178.162 573.091V565.636Z" fill="#7D6FD9"/>
<path d="M178.162 558.18L430.096 567.258V574.712L178.162 565.636V558.18Z" fill="#7D70D9"/>
<path d="M178.162 550.726L430.096 559.803V567.258L178.162 558.18V550.726Z" fill="#7E71DA"/>
<path d="M178.162 543.271L430.096 552.349V559.803L178.162 550.726V543.271Z" fill="#7E72DA"/>
<path d="M178.162 535.817L430.096 544.892V552.349L178.162 543.271V535.817Z" fill="#7F73DB"/>
<path d="M178.162 528.362L430.096 537.438V544.892L178.162 535.817V528.362Z" fill="#7F74DB"/>
<path d="M178.162 520.906L430.096 529.983V537.438L178.162 528.362V520.906Z" fill="#8075DC"/>
<path d="M178.162 513.451L430.096 522.529V529.983L178.162 520.906V513.451Z" fill="#8076DC"/>
<path d="M178.162 505.997L430.096 515.074V522.529L178.162 513.451V505.997Z" fill="#8177DD"/>
<path d="M178.162 498.542L430.096 507.618V515.074L178.162 505.997V498.542Z" fill="#8178DD"/>
<path d="M178.162 491.088L430.096 500.164V507.618L178.162 498.542V491.088Z" fill="#8279DE"/>
<path d="M178.162 483.632L430.096 492.709V500.164L178.162 491.088V483.632Z" fill="#827ADE"/>
<path d="M178.162 476.177L430.096 485.255V492.709L178.162 483.632V476.177Z" fill="#837BDF"/>
<path d="M178.162 468.722L430.096 477.8V485.254L178.162 476.177V468.722Z" fill="#847CDF"/>
<path d="M178.162 461.268L430.096 470.344V477.8L178.162 468.723V461.268Z" fill="#847DE0"/>
<path d="M178.162 453.813L430.096 462.889V470.344L178.162 461.268V453.813Z" fill="#857EE0"/>
<path d="M178.162 446.359L430.096 455.435V462.889L178.162 453.813V446.359Z" fill="#857FE1"/>
<path d="M178.162 438.903L430.096 447.98V455.435L178.162 446.359V438.903Z" fill="#8680E1"/>
<path d="M178.162 431.448L430.096 440.526V447.98L178.162 438.903V431.448Z" fill="#8681E2"/>
<path d="M178.162 423.994L430.096 433.071V440.526L178.162 431.448V423.994Z" fill="#8782E2"/>
<path d="M178.162 416.539L430.096 425.615V433.071L178.162 423.994V416.539Z" fill="#8783E3"/>
<path d="M178.162 409.085L430.096 418.161V425.615L178.162 416.539V409.085Z" fill="#8884E3"/>
<path d="M178.162 401.628L430.096 410.706V418.161L178.162 409.085V401.628Z" fill="#8885E4"/>
<path d="M178.162 394.174L430.096 403.251V410.706L178.162 401.628V394.174Z" fill="#8986E4"/>
<path d="M178.162 386.719L430.096 395.797V403.252L178.162 394.174V386.719Z" fill="#8987E5"/>
<path d="M178.162 379.265L430.096 388.341V395.797L178.162 386.719V379.265Z" fill="#8A88E5"/>
<path d="M178.162 371.811L430.096 380.886V388.341L178.162 379.265V371.811Z" fill="#8B89E6"/>
<path d="M178.162 364.356L430.096 373.432V380.886L178.162 371.81V364.356Z" fill="#8B8AE6"/>
<path d="M178.162 356.9L430.096 365.977V373.432L178.162 364.356V356.9Z" fill="#8C8BE7"/>
<path d="M178.162 349.445L430.096 358.523V365.977L178.162 356.9V349.445Z" fill="#8C8CE7"/>
<path d="M178.162 341.991L430.096 351.067V358.523L178.162 349.445V341.991Z" fill="#8D8DE8"/>
<path d="M178.162 334.536L430.096 343.612V351.066L178.162 341.991V334.536Z" fill="#8D8EE8"/>
<path d="M178.162 327.082L430.096 336.157V343.612L178.162 334.536V327.082Z" fill="#8E8FE9"/>
<path d="M178.162 319.625L430.096 328.703V336.158L178.162 327.082V319.625Z" fill="#8E90E9"/>
<path d="M178.162 312.171L430.096 321.248V328.703L178.162 319.625V312.171Z" fill="#8F91EA"/>
<path d="M178.162 304.716L430.096 313.794V321.248L178.162 312.171V304.716Z" fill="#8F92EA"/>
<path d="M178.162 297.262L430.096 306.338V313.794L178.162 304.716V297.262Z" fill="#9093EB"/>
<path d="M178.162 289.807L430.096 298.883V306.338L178.162 297.262V289.807Z" fill="#9094EB"/>
<path d="M178.162 282.351L430.096 291.429V298.883L178.162 289.807V282.351Z" fill="#9196EC"/>
<path d="M178.162 274.896L430.096 283.974V291.429L178.162 282.351V274.896Z" fill="#9297EC"/>
<path d="M178.162 267.442L430.096 276.52V283.974L178.162 274.897V267.442Z" fill="#9298ED"/>
<path d="M178.162 259.988L430.096 269.063V276.52L178.162 267.442V259.988Z" fill="#9399ED"/>
<path d="M178.162 252.533L430.096 261.609V269.064L178.162 259.988V252.533Z" fill="#939AEE"/>
<path d="M178.162 245.079L430.096 254.154V261.609L178.162 252.533V245.079Z" fill="#949BEE"/>
<path d="M178.162 237.622L430.096 246.7V254.154L178.162 245.079V237.622Z" fill="#949CEF"/>
<path d="M178.162 230.168L430.096 239.245V246.7L178.162 237.622V230.168Z" fill="#959DEF"/>
<path d="M178.162 222.713L430.096 231.791V239.245L178.162 230.168V222.713Z" fill="#959EF0"/>
<path d="M178.162 215.259L430.096 224.335V231.791L178.162 222.713V215.259Z" fill="#969FF0"/>
<path d="M178.162 207.804L430.096 216.88V224.335L178.162 215.259V207.804Z" fill="#96A0F1"/>
<path d="M178.162 200.348L430.096 209.426V216.88L178.162 207.804V200.348Z" fill="#97A1F1"/>
<path d="M178.162 192.894L430.096 201.971V209.426L178.162 200.348V192.894Z" fill="#97A2F2"/>
<path d="M178.162 185.439L430.096 194.517V201.971L178.162 192.893V185.439Z" fill="#98A3F2"/>
<path d="M178.162 177.985L430.096 187.06V194.517L178.162 185.439V177.985Z" fill="#99A4F3"/>
<path d="M178.162 170.53L430.096 179.606V187.06L178.162 177.985V170.53Z" fill="#99A5F3"/>
<path d="M178.162 163.074L430.096 172.151V179.606L178.162 170.53V163.074Z" fill="#9AA6F4"/>
<path d="M178.162 155.619L430.096 164.697V172.151L178.162 163.074V155.619Z" fill="#9AA7F4"/>
<path d="M178.162 148.165L430.096 157.242V164.697L178.162 155.619V148.165Z" fill="#9BA8F5"/>
<path d="M178.162 140.71L430.096 149.786V157.242L178.162 148.165V140.71Z" fill="#9BA9F5"/>
<path d="M178.162 133.256L430.096 142.331V149.786L178.162 140.71V133.256Z" fill="#9CAAF6"/>
<path d="M178.162 125.801L430.096 134.877V142.332L178.162 133.256V125.801Z" fill="#9CABF6"/>
<path d="M178.162 118.345L430.096 127.423V134.877L178.162 125.801V118.345Z" fill="#9DACF7"/>
<path d="M178.162 110.89L430.096 119.968V127.422L178.162 118.345V110.89Z" fill="#9DADF7"/>
<path d="M178.162 103.436L430.096 112.514V119.968L178.162 110.891V103.436Z" fill="#9EAEF8"/>
<path d="M178.162 95.9814L430.096 105.057V112.514L178.162 103.436V95.9814Z" fill="#9EAFF8"/>
<path d="M178.162 88.5269L430.096 97.6027V105.057L178.162 95.9814V88.5269Z" fill="#9FB0F9"/>
<path d="M233.572 83.0671L430.096 90.1483V97.6028L178.162 88.527V83.0671H233.572Z" fill="#A0B1F9"/>
<path d="M430.096 90.1483L233.572 83.0671H430.096V90.1483Z" fill="#A0B2FA"/>
<path d="M172.074 580.326L356.538 586.971H172.074V580.326Z" fill="#7C6ED8"/>
<path d="M172.074 572.872L436.184 582.386V586.971H356.538L172.074 580.326V572.872Z" fill="#7C6ED8"/>
<path d="M172.074 565.416L436.184 574.931V582.386L172.074 572.872V565.416Z" fill="#7D6FD9"/>
<path d="M172.074 557.961L436.184 567.477V574.931L172.074 565.415V557.961Z" fill="#7D70D9"/>
<path d="M172.074 550.506L436.184 560.022V567.477L172.074 557.961V550.506Z" fill="#7E71DA"/>
<path d="M172.074 543.052L436.184 552.568V560.022L172.074 550.507V543.052Z" fill="#7E72DA"/>
<path d="M172.074 535.597L436.184 545.111V552.568L172.074 543.052V535.597Z" fill="#7F73DB"/>
<path d="M172.074 528.141L436.184 537.657V545.111L172.074 535.597V528.141Z" fill="#7F74DB"/>
<path d="M172.074 520.687L436.184 530.203V537.657L172.074 528.141V520.687Z" fill="#8075DC"/>
<path d="M172.074 513.232L436.184 522.748V530.202L172.074 520.687V513.232Z" fill="#8076DC"/>
<path d="M172.074 505.778L436.184 515.293V522.748L172.074 513.232V505.778Z" fill="#8177DD"/>
<path d="M172.074 498.323L436.184 507.839V515.293L172.074 505.778V498.323Z" fill="#8178DD"/>
<path d="M172.074 490.869L436.184 500.383V507.839L172.074 498.323V490.869Z" fill="#8279DE"/>
<path d="M172.074 483.412L436.184 492.928V500.383L172.074 490.869V483.412Z" fill="#827ADE"/>
<path d="M172.074 475.958L436.184 485.474V492.928L172.074 483.413V475.958Z" fill="#837BDF"/>
<path d="M172.074 468.503L436.184 478.019V485.474L172.074 475.958V468.503Z" fill="#847CDF"/>
<path d="M172.074 461.049L436.184 470.565V478.019L172.074 468.503V461.049Z" fill="#847DE0"/>
<path d="M172.074 453.594L436.184 463.108V470.565L172.074 461.049V453.594Z" fill="#857EE0"/>
<path d="M172.074 446.138L436.184 455.654V463.108L172.074 453.594V446.138Z" fill="#857FE1"/>
<path d="M172.074 438.684L436.184 448.199V455.654L172.074 446.138V438.684Z" fill="#8680E1"/>
<path d="M172.074 431.229L436.184 440.745V448.199L172.074 438.684V431.229Z" fill="#8681E2"/>
<path d="M172.074 423.775L436.184 433.29V440.745L172.074 431.229V423.775Z" fill="#8782E2"/>
<path d="M172.074 416.32L436.184 425.834V433.29L172.074 423.775V416.32Z" fill="#8783E3"/>
<path d="M172.074 408.864L436.184 418.38V425.834L172.074 416.32V408.864Z" fill="#8884E3"/>
<path d="M172.074 401.409L436.184 410.925V418.38L172.074 408.864V401.409Z" fill="#8885E4"/>
<path d="M172.074 393.955L436.184 403.471V410.925L172.074 401.409V393.955Z" fill="#8986E4"/>
<path d="M172.074 386.5L436.184 396.016V403.471L172.074 393.955V386.5Z" fill="#8987E5"/>
<path d="M172.074 379.046L436.184 388.562V396.016L172.074 386.5V379.046Z" fill="#8A88E5"/>
<path d="M172.074 371.591L436.184 381.105V388.562L172.074 379.046V371.591Z" fill="#8B89E6"/>
<path d="M172.074 364.135L436.184 373.651V381.105L172.074 371.591V364.135Z" fill="#8B8AE6"/>
<path d="M172.074 356.681L436.184 366.196V373.651L172.074 364.135V356.681Z" fill="#8C8BE7"/>
<path d="M172.074 349.226L436.184 358.742V366.196L172.074 356.681V349.226Z" fill="#8C8CE7"/>
<path d="M172.074 341.771L436.184 351.287V358.742L172.074 349.226V341.771Z" fill="#8D8DE8"/>
<path d="M172.074 334.317L436.184 343.831V351.287L172.074 341.772V334.317Z" fill="#8D8EE8"/>
<path d="M172.074 326.861L436.184 336.377V343.831L172.074 334.317V326.861Z" fill="#8E8FE9"/>
<path d="M172.074 319.406L436.184 328.922V336.377L172.074 326.861V319.406Z" fill="#8E90E9"/>
<path d="M172.074 311.952L436.184 321.468V328.922L172.074 319.406V311.952Z" fill="#8F91EA"/>
<path d="M172.074 304.497L436.184 314.013V321.468L172.074 311.952V304.497Z" fill="#8F92EA"/>
<path d="M172.074 297.043L436.184 306.558V314.013L172.074 304.497V297.043Z" fill="#9093EB"/>
<path d="M172.074 289.588L436.184 299.102V306.559L172.074 297.043V289.588Z" fill="#9094EB"/>
<path d="M172.074 282.132L436.184 291.648V299.102L172.074 289.588V282.132Z" fill="#9196EC"/>
<path d="M172.074 274.677L436.184 284.193V291.648L172.074 282.132V274.677Z" fill="#9297EC"/>
<path d="M172.074 267.223L436.184 276.739V284.193L172.074 274.677V267.223Z" fill="#9298ED"/>
<path d="M172.074 259.769L436.184 269.284V276.739L172.074 267.223V259.769Z" fill="#9399ED"/>
<path d="M172.074 252.314L436.184 261.828V269.284L172.074 259.768V252.314Z" fill="#939AEE"/>
<path d="M172.074 244.858L436.184 254.373V261.828L172.074 252.314V244.858Z" fill="#949BEE"/>
<path d="M172.074 237.403L436.184 246.919V254.374L172.074 244.858V237.403Z" fill="#949CEF"/>
<path d="M172.074 229.949L436.184 239.464V246.919L172.074 237.403V229.949Z" fill="#959DEF"/>
<path d="M172.074 222.494L436.184 232.01V239.464L172.074 229.949V222.494Z" fill="#959EF0"/>
<path d="M172.074 215.04L436.184 224.554V232.01L172.074 222.494V215.04Z" fill="#969FF0"/>
<path d="M172.074 207.583L436.184 217.099V224.554L172.074 215.04V207.583Z" fill="#96A0F1"/>
<path d="M172.074 200.129L436.184 209.645V217.099L172.074 207.583V200.129Z" fill="#97A1F1"/>
<path d="M172.074 192.674L436.184 202.19V209.645L172.074 200.129V192.674Z" fill="#97A2F2"/>
<path d="M172.074 185.22L436.184 194.736V202.19L172.074 192.674V185.22Z" fill="#98A3F2"/>
<path d="M172.074 177.765L436.184 187.281V194.736L172.074 185.22V177.765Z" fill="#99A4F3"/>
<path d="M172.074 170.311L436.184 179.825V187.281L172.074 177.766V170.311Z" fill="#99A5F3"/>
<path d="M172.074 162.855L436.184 172.37V179.825L172.074 170.311V162.855Z" fill="#9AA6F4"/>
<path d="M172.074 155.4L436.184 164.916V172.37L172.074 162.855V155.4Z" fill="#9AA7F4"/>
<path d="M172.074 147.946L436.184 157.461V164.916L172.074 155.4V147.946Z" fill="#9BA8F5"/>
<path d="M172.074 140.491L436.184 150.007V157.461L172.074 147.946V140.491Z" fill="#9BA9F5"/>
<path d="M172.074 133.037L436.184 142.551V150.007L172.074 140.491V133.037Z" fill="#9CAAF6"/>
<path d="M172.074 125.58L436.184 135.096V142.551L172.074 133.037V125.58Z" fill="#9CABF6"/>
<path d="M172.074 118.126L436.184 127.642V135.096L172.074 125.58V118.126Z" fill="#9DACF7"/>
<path d="M172.074 110.671L436.184 120.187V127.642L172.074 118.126V110.671Z" fill="#9DADF7"/>
<path d="M172.074 103.217L436.184 112.733V120.187L172.074 110.671V103.217Z" fill="#9EAEF8"/>
<path d="M172.074 95.7625L436.184 105.278V112.733L172.074 103.217V95.7625Z" fill="#9EAFF8"/>
<path d="M172.074 88.3062L436.184 97.8219V105.278L172.074 95.7624V88.3062Z" fill="#9FB0F9"/>
<path d="M172.074 80.8516L436.184 90.3673V97.8218L172.074 88.3061V80.8516Z" fill="#A0B1F9"/>
<path d="M270.973 76.9604L436.184 82.9128V90.3673L172.074 80.8516V76.9604H270.973Z" fill="#A0B2FA"/>
<path d="M436.184 82.9128L270.973 76.9604H436.184V82.9128Z" fill="#A1B3FA"/>
<path d="M416.586 587.157H191.672C180.764 587.157 171.889 578.254 171.889 567.312V96.6195C171.889 85.6769 180.764 76.7747 191.672 76.7747H416.586C427.494 76.7747 436.369 85.6769 436.369 96.6195V567.312C436.369 578.254 427.494 587.157 416.586 587.157ZM191.672 77.1462C180.968 77.1462 172.258 85.882 172.258 96.6212V567.314C172.258 578.051 180.966 586.789 191.672 586.789H416.586C427.29 586.789 436 578.053 436 567.314V96.6195C436 85.882 427.292 77.1445 416.586 77.1445H191.672V77.1462ZM416.586 581.05H191.672C184.12 581.05 177.977 574.887 177.977 567.312V96.6195C177.977 89.044 184.12 82.8813 191.672 82.8813H416.586C424.136 82.8813 430.28 89.044 430.28 96.6195V567.312C430.28 574.887 424.136 581.05 416.586 581.05ZM191.672 83.2529C184.325 83.2529 178.347 89.2491 178.347 96.6195V567.312C178.347 574.682 184.325 580.679 191.672 580.679H416.586C423.933 580.679 429.911 574.682 429.911 567.312V96.6195C429.911 89.2491 423.933 83.2529 416.586 83.2529H191.672Z" fill="#EFEFEF"/>
<path d="M306.004 277.906C350.279 277.906 386.172 241.902 386.172 197.489C386.172 153.076 350.279 117.073 306.004 117.073C261.728 117.073 225.836 153.076 225.836 197.489C225.836 241.902 261.728 277.906 306.004 277.906Z" fill="white"/>
<path d="M236.919 214.165L228.053 214.317V214.165H236.919Z" fill="#8D8EE8"/>
<path d="M332.147 214.165L228.053 215.958V214.318L236.919 214.165H332.147Z" fill="#8E8FE9"/>
<path d="M383.954 214.914L228.053 217.597V215.958L332.147 214.165H383.954V214.914Z" fill="#8E90E9"/>
<path d="M383.954 216.553L228.053 219.238V217.597L383.954 214.914V216.553Z" fill="#8F91EA"/>
<path d="M383.954 218.193L228.053 220.877V219.238L383.954 216.552V218.193Z" fill="#8F92EA"/>
<path d="M383.954 219.832L228.053 222.517V220.877L383.954 218.193V219.832Z" fill="#9093EB"/>
<path d="M383.954 221.473L228.053 224.158V222.517L383.954 219.832V221.473Z" fill="#9094EB"/>
<path d="M383.954 223.111L228.053 225.797V224.158L383.954 221.473V223.111Z" fill="#9196EC"/>
<path d="M383.954 224.752L228.053 227.437V225.797L383.954 223.111V224.752Z" fill="#9297EC"/>
<path d="M383.954 226.393L228.053 229.076V227.437L383.954 224.752V226.393Z" fill="#9298ED"/>
<path d="M383.954 228.031L228.053 230.717V229.076L383.954 226.393V228.031Z" fill="#9399ED"/>
<path d="M383.954 229.672L228.053 232.357V230.717L383.954 228.031V229.672Z" fill="#939AEE"/>
<path d="M383.954 231.311L228.053 233.996V232.357L383.954 229.672V231.311Z" fill="#949BEE"/>
<path d="M383.954 232.951L228.053 235.637V233.996L383.954 231.311V232.951Z" fill="#949CEF"/>
<path d="M383.954 234.592L228.053 237.275V235.637L383.954 232.951V234.592Z" fill="#959DEF"/>
<path d="M383.954 236.231L228.053 238.916V237.276L383.954 234.592V236.231Z" fill="#959EF0"/>
<path d="M383.954 237.871L228.053 240.557V238.916L383.954 236.231V237.871Z" fill="#969FF0"/>
<path d="M383.954 239.51L228.053 242.195V240.557L383.954 237.871V239.51Z" fill="#96A0F1"/>
<path d="M383.954 241.151L228.053 243.836V242.196L383.954 239.51V241.151Z" fill="#97A1F1"/>
<path d="M383.954 242.791L228.053 245.475V243.836L383.954 241.151V242.791Z" fill="#97A2F2"/>
<path d="M383.954 244.43L228.053 247.116V245.475L383.954 242.792V244.43Z" fill="#98A3F2"/>
<path d="M383.954 246.071L228.053 248.756V247.115L383.954 244.43V246.071Z" fill="#99A4F3"/>
<path d="M383.954 247.71L228.053 250.395V248.756L383.954 246.071V247.71Z" fill="#99A5F3"/>
<path d="M383.954 249.35L228.053 252.036V250.395L383.954 247.71V249.35Z" fill="#9AA6F4"/>
<path d="M383.954 250.991L228.053 253.674V252.036L383.954 249.35V250.991Z" fill="#9AA7F4"/>
<path d="M383.954 252.63L228.053 255.315V253.674L383.954 250.991V252.63Z" fill="#9BA8F5"/>
<path d="M383.954 254.27L228.053 256.954V255.315L383.954 252.63V254.27Z" fill="#9BA9F5"/>
<path d="M383.954 255.909L228.053 258.594V256.954L383.954 254.27V255.909Z" fill="#9CAAF6"/>
<path d="M383.954 257.55L228.053 260.235V258.594L383.954 255.909V257.55Z" fill="#9CABF6"/>
<path d="M383.954 259.19L228.053 261.874V260.235L383.954 257.55V259.19Z" fill="#9DACF7"/>
<path d="M383.954 260.829L228.053 263.514V261.874L383.954 259.19V260.829Z" fill="#9DADF7"/>
<path d="M383.954 262.47L228.053 265.153V263.514L383.954 260.829V262.47Z" fill="#9EAEF8"/>
<path d="M383.954 264.109L228.053 266.794V265.153L383.954 262.47V264.109Z" fill="#9EAFF8"/>
<path d="M383.954 265.749L228.053 268.434V266.794L383.954 264.109V265.749Z" fill="#9FB0F9"/>
<path d="M383.954 267.39L228.053 270.073V268.434L383.954 265.749V267.39Z" fill="#A0B1F9"/>
<path d="M383.954 269.028L228.053 271.714V270.073L383.954 267.39V269.028Z" fill="#A0B2FA"/>
<path d="M383.954 270.669L228.053 273.353V271.714L383.954 269.029V270.669Z" fill="#A1B3FA"/>
<path d="M383.954 272.308L228.053 274.993V273.353L383.954 270.669V272.308Z" fill="#A1B4FB"/>
<path d="M383.954 273.948L228.053 276.634V274.993L383.954 272.308V273.948Z" fill="#A2B5FB"/>
<path d="M383.954 275.587L228.053 278.273V276.634L383.954 273.948V275.587Z" fill="#A2B6FC"/>
<path d="M383.954 277.228L228.053 279.913V278.273L383.954 275.587V277.228Z" fill="#A3B7FC"/>
<path d="M383.954 278.869L228.053 281.552V279.913L383.954 277.228V278.869Z" fill="#A3B8FD"/>
<path d="M383.954 280.507L228.053 283.193V281.552L383.954 278.869V280.507Z" fill="#A4B9FD"/>
<path d="M383.954 282.148L228.053 284.833V283.193L383.954 280.507V282.148Z" fill="#A4BAFE"/>
<path d="M383.954 283.787L228.053 286.472V284.833L383.954 282.148V283.787Z" fill="#A5BBFE"/>
<path d="M383.954 285.427L228.053 288.113V286.472L383.954 283.787V285.427Z" fill="#A5BCFF"/>
<path d="M383.954 287.068L228.053 289.752V288.113L383.954 285.427V287.068Z" fill="#A6BDFF"/>
<path d="M228.053 289.752L383.954 287.068V380.185H228.053V289.752Z" fill="#A6BDFF"/>
<path d="M288.474 160.801L281.251 160.925V160.801H288.474Z" fill="#7C6ED8"/>
<path d="M328.91 161.745L281.251 162.566V160.925L288.475 160.801H328.91V161.745Z" fill="#7D6FD9"/>
<path d="M328.91 163.384L281.251 164.206V162.566L328.91 161.745V163.384Z" fill="#7D70D9"/>
<path d="M328.91 165.025L281.251 165.845V164.206L328.91 163.384V165.025Z" fill="#7E71DA"/>
<path d="M328.91 166.663L281.251 167.486V165.845L328.91 165.025V166.663Z" fill="#7E72DA"/>
<path d="M328.91 168.304L281.251 169.124V167.486L328.91 166.664V168.304Z" fill="#7F73DB"/>
<path d="M328.91 169.945L281.251 170.765V169.125L328.91 168.304V169.945Z" fill="#7F74DB"/>
<path d="M328.91 171.584L281.251 172.404V170.765L328.91 169.945V171.584Z" fill="#8075DC"/>
<path d="M328.91 173.224L281.251 174.044V172.404L328.91 171.583V173.224Z" fill="#8076DC"/>
<path d="M328.91 174.863L281.251 175.685V174.044L328.91 173.224V174.863Z" fill="#8177DD"/>
<path d="M328.91 176.504L281.251 177.324V175.685L328.91 174.863V176.504Z" fill="#8178DD"/>
<path d="M328.91 178.144L281.251 178.965V177.324L328.91 176.504V178.144Z" fill="#8279DE"/>
<path d="M328.91 179.783L281.251 180.603V178.964L328.91 178.144V179.783Z" fill="#827ADE"/>
<path d="M328.91 181.424L281.251 182.244V180.603L328.91 179.783V181.424Z" fill="#837BDF"/>
<path d="M328.91 183.062L281.251 183.884V182.244L328.91 181.424V183.062Z" fill="#847CDF"/>
<path d="M328.91 184.703L281.251 185.523V183.885L328.91 183.062V184.703Z" fill="#847DE0"/>
<path d="M328.91 186.343L281.251 187.164V185.523L328.91 184.703V186.343Z" fill="#857EE0"/>
<path d="M328.91 187.982L281.251 188.803V187.164L328.91 186.344V187.982Z" fill="#857FE1"/>
<path d="M328.91 189.623L281.251 190.443V188.803L328.91 187.982V189.623Z" fill="#8680E1"/>
<path d="M328.91 191.262L281.251 192.084V190.443L328.91 189.623V191.262Z" fill="#8681E2"/>
<path d="M328.91 192.902L281.251 193.723V192.084L328.91 191.262V192.902Z" fill="#8782E2"/>
<path d="M328.91 194.543L281.251 195.363V193.723L328.91 192.902V194.543Z" fill="#8783E3"/>
<path d="M328.91 196.182L281.251 197.002V195.363L328.91 194.543V196.182Z" fill="#8884E3"/>
<path d="M328.91 197.822L281.251 198.643V197.002L328.91 196.182V197.822Z" fill="#8885E4"/>
<path d="M328.91 199.461L281.251 200.283V198.643L328.91 197.823V199.461Z" fill="#8986E4"/>
<path d="M328.91 201.102L281.251 201.922V200.283L328.91 199.461V201.102Z" fill="#8987E5"/>
<path d="M328.91 202.742L281.251 203.563V201.922L328.91 201.102V202.742Z" fill="#8A88E5"/>
<path d="M328.91 204.381L281.251 205.202V203.563L328.91 202.742V204.381Z" fill="#8B89E6"/>
<path d="M328.91 206.022L281.251 206.842V205.202L328.91 204.381V206.022Z" fill="#8B8AE6"/>
<path d="M328.91 207.661L281.251 208.483V206.842L328.91 206.022V207.661Z" fill="#8C8BE7"/>
<path d="M281.251 208.483L328.91 207.661V208.607H281.251V208.483Z" fill="#8C8CE7"/>
<path d="M356.397 440.431L355.787 421.34H356.397V440.431Z" fill="#F995BD"/>
<path d="M355.32 456.457L354.199 421.34H355.787L356.397 440.431V456.457H355.32Z" fill="#F994BD"/>
<path d="M353.734 456.457L352.611 421.34H354.199L355.32 456.457H353.734Z" fill="#F993BC"/>
<path d="M352.146 456.457L351.024 421.34H352.61L353.734 456.457H352.146Z" fill="#F992BC"/>
<path d="M350.557 456.457L349.436 421.34H351.024L352.145 456.457H350.557Z" fill="#F991BB"/>
<path d="M348.969 456.457L347.847 421.34H349.435L350.557 456.457H348.969Z" fill="#F990BA"/>
<path d="M347.381 456.457L346.259 421.34H347.847L348.969 456.457H347.381Z" fill="#F98FBA"/>
<path d="M345.794 456.457L344.671 421.34H346.259L347.38 456.457H345.794Z" fill="#F98EB9"/>
<path d="M344.206 456.457L343.084 421.34H344.67L345.794 456.457H344.206Z" fill="#F98DB9"/>
<path d="M342.617 456.457L341.496 421.34H343.084L344.205 456.457H342.617Z" fill="#F98CB8"/>
<path d="M341.029 456.457L339.907 421.34H341.496L342.617 456.457H341.029Z" fill="#F98AB7"/>
<path d="M339.441 456.457L338.319 421.34H339.907L341.029 456.457H339.441Z" fill="#F989B7"/>
<path d="M337.854 456.457L336.731 421.34H338.319L339.44 456.457H337.854Z" fill="#F988B6"/>
<path d="M336.266 456.457L335.144 421.34H336.731L337.854 456.457H336.266Z" fill="#F987B6"/>
<path d="M334.677 456.457L333.556 421.34H335.144L336.266 456.457H334.677Z" fill="#F986B5"/>
<path d="M333.089 456.457L331.967 421.34H333.556L334.677 456.457H333.089Z" fill="#F985B4"/>
<path d="M331.501 456.457L330.379 421.34H331.967L333.089 456.457H331.501Z" fill="#F984B4"/>
<path d="M329.914 456.457L328.791 421.34H330.379L331.501 456.457H329.914Z" fill="#F983B3"/>
<path d="M328.326 456.457L327.204 421.34H328.791L329.914 456.457H328.326Z" fill="#F982B3"/>
<path d="M326.738 456.457L325.616 421.34H327.204L328.326 456.457H326.738Z" fill="#F981B2"/>
<path d="M325.149 456.457L324.028 421.34H325.616L326.737 456.457H325.149Z" fill="#F980B1"/>
<path d="M323.561 456.457L322.439 421.34H324.027L325.149 456.457H323.561Z" fill="#F97FB1"/>
<path d="M321.974 456.457L320.851 421.34H322.439L323.561 456.457H321.974Z" fill="#F97EB0"/>
<path d="M320.386 456.457L319.264 421.34H320.851L321.974 456.457H320.386Z" fill="#F97DB0"/>
<path d="M318.798 456.457L317.676 421.34H319.264L320.386 456.457H318.798Z" fill="#F97CAF"/>
<path d="M317.209 456.457L316.088 421.34H317.676L318.797 456.457H317.209Z" fill="#F97BAF"/>
<path d="M315.621 456.457L314.499 421.34H316.088L317.209 456.457H315.621Z" fill="#F97AAE"/>
<path d="M314.034 456.457L312.911 421.34H314.499L315.621 456.457H314.034Z" fill="#F979AD"/>
<path d="M312.446 456.457L311.324 421.34H312.911L314.034 456.457H312.446Z" fill="#F978AD"/>
<path d="M310.858 456.457L309.736 421.34H311.324L312.446 456.457H310.858Z" fill="#F977AC"/>
<path d="M309.269 456.457L308.148 421.34H309.736L310.858 456.457H309.269Z" fill="#F976AC"/>
<path d="M307.681 456.457L306.559 421.34H308.148L309.269 456.457H307.681Z" fill="#F975AB"/>
<path d="M306.095 456.457L304.971 421.34H306.559L307.681 456.457H306.095Z" fill="#F974AA"/>
<path d="M304.506 456.457L303.385 421.34H304.971L306.094 456.457H304.506Z" fill="#F973AA"/>
<path d="M302.918 456.457L301.796 421.34H303.384L304.506 456.457H302.918Z" fill="#F972A9"/>
<path d="M301.33 456.457L300.208 421.34H301.796L302.918 456.457H301.33Z" fill="#F971A9"/>
<path d="M299.741 456.457L298.62 421.34H300.208L301.329 456.457H299.741Z" fill="#F970A8"/>
<path d="M298.153 456.457L297.031 421.34H298.619L299.741 456.457H298.153Z" fill="#F96FA7"/>
<path d="M296.566 456.457L295.445 421.34H297.031L298.153 456.457H296.566Z" fill="#F96EA7"/>
<path d="M294.978 456.457L293.856 421.34H295.444L296.566 456.457H294.978Z" fill="#F96DA6"/>
<path d="M293.39 456.457L292.268 421.34H293.856L294.978 456.457H293.39Z" fill="#F96CA6"/>
<path d="M291.801 456.457L290.68 421.34H292.268L293.389 456.457H291.801Z" fill="#F96BA5"/>
<path d="M290.213 456.457L289.091 421.34H290.68L291.801 456.457H290.213Z" fill="#F96AA4"/>
<path d="M288.626 456.457L287.505 421.34H289.091L290.213 456.457H288.626Z" fill="#F969A4"/>
<path d="M287.038 456.457L285.916 421.34H287.505L288.626 456.457H287.038Z" fill="#F968A3"/>
<path d="M285.45 456.457L284.328 421.34H285.916L287.038 456.457H285.45Z" fill="#F967A3"/>
<path d="M283.861 456.457L282.74 421.34H284.328L285.45 456.457H283.861Z" fill="#F966A2"/>
<path d="M282.273 456.457L281.151 421.34H282.74L283.861 456.457H282.273Z" fill="#F965A1"/>
<path d="M280.687 456.457L279.565 421.34H281.151L282.273 456.457H280.687Z" fill="#F964A1"/>
<path d="M279.098 456.457L277.977 421.34H279.565L280.686 456.457H279.098Z" fill="#F963A0"/>
<path d="M277.51 456.457L276.388 421.34H277.976L279.098 456.457H277.51Z" fill="#F962A0"/>
<path d="M275.922 456.457L274.8 421.34H276.388L277.51 456.457H275.922Z" fill="#F9619F"/>
<path d="M274.333 456.457L273.212 421.34H274.8L275.921 456.457H274.333Z" fill="#F9609F"/>
<path d="M272.747 456.457L271.623 421.34H273.211L274.333 456.457H272.747Z" fill="#F95F9E"/>
<path d="M271.158 456.457L270.037 421.34H271.623L272.746 456.457H271.158Z" fill="#F95E9D"/>
<path d="M269.57 456.457L268.448 421.34H270.037L271.158 456.457H269.57Z" fill="#F95D9D"/>
<path d="M267.982 456.457L266.86 421.34H268.448L269.57 456.457H267.982Z" fill="#F95C9C"/>
<path d="M266.393 456.457L265.272 421.34H266.86L267.981 456.457H266.393Z" fill="#F95B9C"/>
<path d="M264.807 456.457L263.683 421.34H265.271L266.393 456.457H264.807Z" fill="#F95A9B"/>
<path d="M263.218 456.457L262.097 421.34H263.683L264.807 456.457H263.218Z" fill="#F9599A"/>
<path d="M261.63 456.457L260.508 421.34H262.097L263.218 456.457H261.63Z" fill="#F9589A"/>
<path d="M260.042 456.457L258.92 421.34H260.508L261.63 456.457H260.042Z" fill="#F95799"/>
<path d="M258.453 456.457L257.332 421.34H258.92L260.042 456.457H258.453Z" fill="#F95699"/>
<path d="M256.867 456.457L255.743 421.34H257.332L258.453 456.457H256.867Z" fill="#F95598"/>
<path d="M255.743 421.34L256.867 456.457H253.655V421.34H255.743Z" fill="#F95598"/>
<path d="M410.554 351.28H199.238C194.342 351.28 190.372 347.298 190.372 342.387V321.634C190.372 316.723 194.342 312.74 199.238 312.74H410.554C415.45 312.74 419.42 316.723 419.42 321.634V342.387C419.42 347.298 415.45 351.28 410.554 351.28Z" fill="white"/>
<path d="M410.554 400.938H199.238C194.342 400.938 190.372 396.956 190.372 392.044V371.292C190.372 366.38 194.342 362.398 199.238 362.398H410.554C415.45 362.398 419.42 366.38 419.42 371.292V392.044C419.42 396.956 415.45 400.938 410.554 400.938Z" fill="white"/>
<path d="M214.306 382.86C214.759 380.031 212.841 377.369 210.02 376.915C207.2 376.46 204.547 378.384 204.093 381.213C203.64 384.042 205.559 386.704 208.379 387.159C211.199 387.614 213.853 385.689 214.306 382.86Z" fill="#5C49D8"/>
<path d="M233.449 383.261C234.105 380.473 232.384 377.678 229.604 377.02C226.824 376.361 224.038 378.088 223.382 380.877C222.726 383.665 224.447 386.46 227.227 387.118C230.007 387.777 232.792 386.05 233.449 383.261Z" fill="#5C49D8"/>
<path d="M251.286 385.706C253.306 383.68 253.306 380.395 251.286 378.369C249.266 376.343 245.992 376.343 243.973 378.369C241.953 380.395 241.953 383.68 243.973 385.706C245.992 387.732 249.266 387.732 251.286 385.706Z" fill="#5C49D8"/>
<path d="M271.96 382.873C272.417 380.045 270.502 377.38 267.683 376.921C264.863 376.462 262.206 378.382 261.749 381.211C261.291 384.039 263.206 386.704 266.026 387.163C268.845 387.622 271.502 385.702 271.96 382.873Z" fill="#5C49D8"/>
<path d="M291.083 383.264C291.74 380.475 290.018 377.681 287.238 377.022C284.459 376.363 281.673 378.09 281.017 380.879C280.36 383.667 282.082 386.462 284.862 387.12C287.642 387.779 290.427 386.052 291.083 383.264Z" fill="#5C49D8"/>
<path d="M308.917 385.708C310.936 383.682 310.936 380.397 308.917 378.37C306.897 376.344 303.623 376.344 301.603 378.371C299.584 380.397 299.584 383.682 301.603 385.708C303.623 387.734 306.897 387.734 308.917 385.708Z" fill="#5C49D8"/>
<path d="M329.506 383.266C330.163 380.478 328.441 377.683 325.661 377.025C322.881 376.366 320.096 378.093 319.439 380.881C318.783 383.67 320.505 386.465 323.284 387.123C326.064 387.782 328.85 386.055 329.506 383.266Z" fill="#5C49D8"/>
<path d="M302.679 336.457H208.473C206.025 336.457 204.04 334.466 204.04 332.01C204.04 329.555 206.025 327.564 208.473 327.564H302.679C305.127 327.564 307.112 329.555 307.112 332.01C307.112 334.466 305.127 336.457 302.679 336.457Z" fill="#5C49D8"/>
<path d="M374.349 336.457H322.259C319.811 336.457 317.826 334.466 317.826 332.01C317.826 329.555 319.811 327.564 322.259 327.564H374.349C376.797 327.564 378.782 329.555 378.782 332.01C378.782 334.466 376.797 336.457 374.349 336.457Z" fill="#5C49D8"/>
<g opacity="0.27">
<g opacity="0.27">
<path opacity="0.27" d="M433.14 240.427L175.118 499.25V567.312C175.118 576.482 182.53 583.918 191.672 583.918H259.956L433.14 410.196V240.427Z" fill="white"/>
</g>
<g opacity="0.27">
<path opacity="0.27" d="M433.14 240.427L175.118 499.25V567.312C175.118 576.482 182.53 583.918 191.672 583.918H259.956L433.14 410.196V240.427Z" fill="white"/>
</g>
<g opacity="0.27">
<path opacity="0.27" d="M416.586 80.0137H317.846L175.118 223.185V352.965L432.976 94.3057C431.854 86.2307 424.945 80.0137 416.586 80.0137Z" fill="white"/>
</g>
<g opacity="0.27">
<path opacity="0.27" d="M416.586 80.0137H317.846L175.118 223.185V352.965L432.976 94.3057C431.854 86.2307 424.945 80.0137 416.586 80.0137Z" fill="white"/>
</g>
</g>
<path d="M366.399 505.667C369.292 506.458 381.034 505.104 393.837 502.232C399.221 508.508 411.868 518.105 439.139 518.8C479.911 519.843 477.203 516.199 477.203 516.199C482.804 513.013 491.005 495.792 498.427 477.53C503.877 482.543 518.906 496.097 524.063 497.939C530.404 500.212 542.638 500.666 547.168 491.578C551.697 482.488 543.998 467.488 543.998 467.488C543.998 467.488 534.48 443.402 522.249 422.498C517.426 414.252 513.797 409.894 511.174 407.64C510.164 406.499 508.852 405.617 507.344 405.132L475.785 394.395L425.605 398.323C423.673 398.475 421.891 399.269 420.508 400.526C420.505 400.526 420.505 400.526 420.505 400.526C417.372 401.495 411.985 404.711 403.098 413.861C385.882 431.586 363.682 469.76 360.512 483.849C357.337 497.939 361.414 504.303 366.399 505.667Z" fill="white"/>
<path d="M480.788 513.115C480.716 513.115 480.645 513.092 480.584 513.043C480.44 512.929 480.418 512.72 480.531 512.578C485.031 506.891 490.949 495.056 498.123 477.406L498.302 476.966L498.651 477.286C502.963 481.253 513.708 490.965 520.356 495.475C520.507 495.576 520.547 495.783 520.446 495.934C520.344 496.085 520.138 496.125 519.988 496.023C513.477 491.606 503.086 482.254 498.557 478.096C491.44 495.562 485.551 507.301 481.05 512.99C480.982 513.071 480.886 513.115 480.788 513.115Z" fill="#5C49D8"/>
<path d="M545.974 493.864C545.906 493.864 545.838 493.843 545.778 493.799C545.632 493.69 545.602 493.484 545.71 493.336C546.145 492.747 546.535 492.108 546.872 491.433C551.276 482.595 543.779 467.792 543.704 467.643C543.596 467.373 534.043 443.311 521.964 422.67C517.814 415.575 514.111 410.604 510.959 407.896L510.928 407.865C509.937 406.744 508.663 405.91 507.244 405.451L494.37 401.071C494.197 401.013 494.104 400.824 494.164 400.652C494.222 400.478 494.412 400.385 494.581 400.445L507.451 404.823C508.971 405.314 510.339 406.208 511.407 407.409C514.611 410.168 518.354 415.189 522.534 422.335C534.637 443.021 544.209 467.129 544.304 467.371C544.608 467.96 552.013 482.595 547.463 491.731C547.108 492.441 546.697 493.114 546.241 493.732C546.175 493.818 546.075 493.864 545.974 493.864Z" fill="#5C49D8"/>
<path d="M508.656 561.111C510.016 561.111 514.999 559.747 535.387 558.383C555.775 557.02 568.006 560.201 568.006 560.201C568.006 560.201 574.802 562.928 574.802 569.745C574.802 576.561 570.723 581.106 566.194 582.016C561.663 582.925 536.746 584.743 529.497 583.833C522.247 582.924 506.844 579.288 502.766 575.199C498.69 571.11 508.656 561.111 508.656 561.111Z" fill="#382A73"/>
<path d="M489.838 465.098H472.168C469.666 465.098 468.242 463.148 468.987 460.742L481.391 420.674C482.135 418.269 484.768 416.318 487.271 416.318H504.94C507.442 416.318 508.866 418.267 508.122 420.674L495.717 460.742C494.971 463.148 492.338 465.098 489.838 465.098Z" fill="#382A73"/>
<path d="M423.03 513.393L477.396 516.121C477.396 516.121 515.453 499.306 528.139 497.033C540.825 494.761 548.98 495.669 554.87 504.305C560.76 512.941 558.494 528.392 548.074 537.935C537.653 547.479 513.189 559.295 513.189 559.295C513.189 559.295 475.586 574.291 461.994 577.019C448.403 579.746 446.589 579.746 446.589 579.746C446.589 579.746 442.058 581.564 440.246 559.75C438.434 537.935 431.185 545.208 431.185 545.208C431.185 545.208 423.03 512.03 423.03 513.393Z" fill="#5C49D8"/>
<path d="M416.687 580.652C416.687 580.652 388.144 569.291 377.271 550.657C366.397 532.023 365.944 519.3 369.116 510.21C372.287 501.12 389.956 498.849 389.956 498.849C389.956 498.849 398.564 497.485 417.592 506.121C436.621 514.755 490.987 547.022 490.987 547.022L500.502 552.93C500.502 552.93 503.22 559.293 496.423 568.383C489.628 577.473 481.926 576.563 481.926 576.563L441.604 563.838L432.997 568.383L427.561 579.29L416.687 580.652Z" fill="#5C49D8"/>
<path d="M436.621 566.139C436.621 566.139 427.559 563.384 412.156 563.384C396.753 563.384 383.161 564.302 379.537 567.517C375.913 570.731 373.647 576.242 375.913 580.375C378.179 584.508 382.642 589.449 396.753 589.56C414.005 589.696 420.313 590.019 433.451 584.967C446.589 579.916 443.872 570.73 443.872 570.73L436.621 566.139Z" fill="#382A73"/>
<path d="M441.606 562.928L431.789 565.352C431.789 565.352 429.825 571.108 432.997 575.653C436.168 580.198 437.98 582.016 437.98 582.016L451.571 578.835C451.571 578.835 447.136 575.571 443.869 570.654C440.246 565.202 441.606 562.928 441.606 562.928Z" fill="#FCC5B6"/>
<path d="M498.689 550.659L519.077 561.566C519.077 561.566 522.701 567.019 520.437 571.564C518.172 576.109 515.001 578.38 515.001 578.38L492.348 572.472C492.348 572.472 495.972 570.654 498.691 562.928C501.408 555.204 498.689 550.659 498.689 550.659Z" fill="#FCC5B6"/>
<path d="M512.282 454.767L508.941 438.189L498.295 433.134L484.65 432.889C483.846 432.875 483.313 433.72 483.669 434.442C484.457 436.039 486.082 437.046 487.858 437.041L494.029 437.025L500.732 439.164L490.69 440.506L484.363 444.422C482.927 445.311 482.418 447.163 483.199 448.664L484.725 451.598L485.263 456.285L487.594 458.856C488.831 460.22 490.666 460.873 492.483 460.598L494.143 460.346L497.784 465.674C500.21 467.49 505.188 470.608 508.09 469.749C512.24 468.521 514.604 464.141 513.358 459.983L512.282 454.767Z" fill="#FCB19C"/>
<path d="M450.213 456.584L458.281 446.299L465.347 440.284C465.855 439.851 466.421 439.488 467.028 439.208L475.375 435.346L475.394 435.499C475.736 438.312 474.337 441.23 471.81 442.972L466.495 446.636L478.861 444.28L488.356 439.544C489.97 438.61 491.908 438.673 493.248 439.704C494.721 440.834 495.548 442.587 495.516 444.508L495.45 448.501C495.406 451.189 494.138 453.845 491.987 455.752L482.873 463.829C481.852 464.733 480.66 465.425 479.385 465.855L454.201 473.269C452.078 473.895 449.79 473.122 448.478 471.334C445.978 467.93 445.843 463.327 448.141 459.783L450.213 456.584Z" fill="#FCC5B6"/>
<path d="M471.546 451.594C471.398 451.594 471.262 451.493 471.227 451.34C471.185 451.163 471.293 450.984 471.471 450.941L478.752 449.19C480.348 448.816 481.863 448.187 483.254 447.323L492.78 440.687C492.93 440.582 493.135 440.62 493.24 440.769C493.343 440.92 493.306 441.125 493.157 441.23L483.617 447.875C482.149 448.786 480.57 449.442 478.906 449.833L471.627 451.584C471.597 451.593 471.571 451.594 471.546 451.594Z" fill="#1A1A1A"/>
<path d="M473.336 457.396C473.192 457.396 473.06 457.301 473.019 457.156C472.969 456.981 473.07 456.797 473.245 456.746L479.579 454.923C480.916 454.53 482.193 453.952 483.374 453.205L493.848 445.498C493.996 445.39 494.201 445.423 494.309 445.568C494.417 445.716 494.386 445.922 494.239 446.031L483.746 453.75C482.495 454.543 481.162 455.147 479.764 455.557L473.428 457.382C473.397 457.391 473.365 457.396 473.336 457.396Z" fill="#1A1A1A"/>
<path d="M474.802 462.712C474.665 462.712 474.536 462.626 474.489 462.488C474.429 462.314 474.522 462.127 474.693 462.067L480.688 460.001C482.354 459.406 483.89 458.53 485.252 457.396L494.526 449.68C494.665 449.563 494.873 449.582 494.99 449.724C495.107 449.864 495.086 450.073 494.947 450.19L485.674 457.906C484.251 459.089 482.645 460.004 480.905 460.626L474.906 462.693C474.873 462.707 474.838 462.712 474.802 462.712Z" fill="#1A1A1A"/>
<path d="M456.278 384.986L451.031 398.691C450.213 400.826 449.913 403.125 450.154 405.4C450.937 412.8 457.472 418.215 464.863 417.587C467.589 417.356 469.991 415.7 471.181 413.228L481.529 391.766L456.278 384.986Z" fill="#FCC5B6"/>
<path d="M472.866 573.713C472.845 573.713 472.824 573.711 472.803 573.706C451.709 569.654 396.257 542.142 395.7 541.865C395.536 541.785 395.469 541.585 395.551 541.422C395.632 541.257 395.829 541.192 395.993 541.273C396.551 541.55 451.922 569.021 472.929 573.057C473.107 573.092 473.226 573.264 473.191 573.445C473.159 573.603 473.021 573.713 472.866 573.713Z" fill="white"/>
<path d="M496.423 549.626C496.369 549.626 496.315 549.612 496.264 549.586L435.102 515.956C434.943 515.868 434.884 515.667 434.971 515.507C435.059 515.348 435.259 515.288 435.418 515.376L496.58 549.006C496.739 549.094 496.799 549.295 496.712 549.455C496.654 549.563 496.54 549.626 496.423 549.626Z" fill="white"/>
<path d="M478.303 537.355C478.179 537.355 478.062 537.285 478.005 537.166C477.926 537.001 477.996 536.803 478.16 536.724L515.31 519C515.474 518.922 515.672 518.993 515.75 519.156C515.829 519.321 515.759 519.519 515.595 519.598L478.445 537.322C478.398 537.345 478.351 537.355 478.303 537.355Z" fill="white"/>
<path d="M463.804 524.176C463.668 524.176 463.542 524.092 463.493 523.957C463.432 523.785 463.521 523.596 463.692 523.535C469.941 521.296 479.411 516.331 479.507 516.282C479.67 516.198 479.869 516.259 479.953 516.42C480.037 516.582 479.976 516.783 479.815 516.867C479.719 516.918 470.208 521.903 463.916 524.157C463.879 524.171 463.841 524.176 463.804 524.176Z" fill="white"/>
<path d="M379.99 468.277C379.836 468.277 379.699 468.17 379.666 468.014C379.63 467.836 379.743 467.66 379.921 467.622C380.243 467.553 412.301 460.807 429.766 457.622L439.792 455.799H446.587C446.769 455.799 446.918 455.948 446.918 456.131C446.918 456.313 446.769 456.462 446.587 456.462H439.822L429.885 458.274C412.429 461.457 380.379 468.202 380.058 468.27C380.035 468.276 380.012 468.277 379.99 468.277Z" fill="#1A1A1A"/>
<path d="M407.625 497.818C407.477 497.818 407.342 497.717 407.306 497.566C407.262 497.389 407.372 497.21 407.548 497.166C423.594 493.251 445.336 482.515 446.816 481.779L451.298 475.036C451.4 474.883 451.604 474.843 451.756 474.945C451.908 475.046 451.948 475.251 451.847 475.404L447.267 482.294L447.189 482.333C446.961 482.447 424.311 493.757 407.704 497.81C407.678 497.815 407.652 497.818 407.625 497.818Z" fill="#1A1A1A"/>
<path d="M405.361 462.824C405.289 462.824 405.218 462.801 405.158 462.754C405.015 462.642 404.99 462.433 405.102 462.29L420.052 443.202C420.166 443.058 420.372 443.034 420.515 443.146C420.659 443.258 420.683 443.467 420.571 443.61L405.621 462.698C405.555 462.78 405.459 462.824 405.361 462.824Z" fill="#1A1A1A"/>
<path d="M539.464 466.46C539.402 466.46 539.339 466.442 539.284 466.405C530.706 460.812 522.846 458.465 522.202 458.279H514.547C514.365 458.279 514.216 458.13 514.216 457.948C514.216 457.766 514.365 457.617 514.547 457.617L522.336 457.629C522.418 457.652 530.645 459.983 539.643 465.851C539.796 465.951 539.839 466.156 539.74 466.309C539.678 466.407 539.572 466.46 539.464 466.46Z" fill="#1A1A1A"/>
<path d="M502.768 478.277C502.609 478.277 502.469 478.163 502.443 478L501.083 469.82C501.054 469.639 501.174 469.469 501.354 469.439C501.534 469.41 501.704 469.53 501.733 469.711L503.093 477.891C503.122 478.072 503.002 478.242 502.822 478.271C502.803 478.275 502.785 478.277 502.768 478.277Z" fill="#1A1A1A"/>
<path d="M497.992 381.023C499.208 378.867 499.886 376.457 500.554 374.071C500.881 372.904 501.207 371.738 501.534 370.573C501.92 369.197 502.308 367.782 502.179 366.359C502.039 364.829 501.249 363.343 499.974 362.491C498.698 361.639 496.947 361.5 495.618 362.263C494.594 362.85 493.905 363.874 493.255 364.862C492.341 366.25 491.428 367.639 490.514 369.025C489.598 370.417 488.669 371.836 488.205 373.438C487.449 376.055 488.017 378.869 488.84 381.464C489.173 382.521 489.567 383.594 490.304 384.421C493.114 387.571 496.594 383.499 497.992 381.023Z" fill="#5C49D8"/>
<path d="M499.418 357.567C497.746 354.014 493.841 352.099 490.051 351.126C482.513 349.194 474.304 350.015 467.288 353.403C464.798 354.605 462.415 356.156 460.683 358.321C457.334 362.51 456.871 368.34 454.395 373.074C453.818 372.688 453.154 372.427 452.469 372.338C450.612 372.092 448.709 372.958 447.445 374.348C446.182 375.738 445.508 377.594 445.277 379.463C445.01 381.633 445.354 383.973 446.699 385.689C448.551 388.051 451.779 388.723 454.73 389.234C453.484 394.55 455.354 400.252 458.319 404.666C461.812 409.866 466.986 413.116 473.119 414.325C478.669 415.421 483.634 413.177 486.911 408.625C489.785 404.631 491.036 399.721 492.23 394.94C494.807 384.607 497.384 374.274 499.962 363.942C500.475 361.875 500.325 359.492 499.418 357.567Z" fill="#FCC5B6"/>
<path d="M470.998 374.331C470.328 374.25 469.647 374.192 469.079 374.269C468.511 374.347 468.08 374.585 468.127 374.927C468.19 375.382 469.028 375.849 469.848 376.178C471.789 376.956 473.986 377.372 476.1 377.687C477.117 377.84 478.246 377.964 478.883 377.686C479.425 377.449 479.429 376.951 478.948 376.508C478.609 376.196 478.067 376.05 477.521 375.87C475.375 375.16 473.24 374.602 470.998 374.331Z" fill="#5C49D8"/>
<path d="M493.068 378.234C493.701 378.469 494.335 378.732 494.802 379.07C495.27 379.408 495.544 379.834 495.343 380.138C495.078 380.539 494.115 380.592 493.233 380.521C491.146 380.355 489 379.726 486.974 379.04C485.999 378.711 484.936 378.304 484.499 377.743C484.127 377.267 484.354 376.793 484.987 376.597C485.432 376.459 485.981 376.572 486.552 376.657C488.791 376.983 490.949 377.449 493.068 378.234Z" fill="#5C49D8"/>
<path d="M472.298 382.983C472.541 381.96 472.242 381.011 471.63 380.865C471.018 380.719 470.325 381.43 470.082 382.454C469.838 383.477 470.137 384.426 470.749 384.572C471.361 384.718 472.055 384.007 472.298 382.983Z" fill="#1A1A1A"/>
<path d="M488.235 386.942C488.478 385.918 488.179 384.97 487.567 384.824C486.955 384.677 486.262 385.389 486.019 386.412C485.775 387.436 486.075 388.384 486.687 388.531C487.299 388.677 487.992 387.966 488.235 386.942Z" fill="#1A1A1A"/>
<path d="M477.493 400.976C477.47 400.976 477.447 400.975 477.424 400.969C474.045 400.323 471.068 397.821 469.839 394.598C469.768 394.41 469.862 394.2 470.049 394.128C470.238 394.056 470.446 394.151 470.517 394.339C471.658 397.332 474.424 399.653 477.561 400.256C477.756 400.293 477.887 400.484 477.849 400.682C477.816 400.855 477.664 400.976 477.493 400.976Z" fill="black"/>
<path d="M470.5 413.724C470.472 413.724 470.444 413.72 470.416 413.715C466.343 412.755 462.542 410.573 459.715 407.568C456.014 403.637 453.895 398.282 453.897 392.875C453.897 392.673 454.059 392.51 454.26 392.51C454.461 392.51 454.623 392.673 454.623 392.875C454.622 398.098 456.671 403.27 460.245 407.069C462.976 409.97 466.647 412.08 470.584 413.007C470.779 413.053 470.9 413.249 470.854 413.445C470.812 413.612 470.664 413.724 470.5 413.724Z" fill="black"/>
<path d="M454.092 376.608C454.272 376.588 454.454 376.522 454.636 376.394C456.484 375.079 458.039 372.709 459.493 370.979C461.12 369.044 463.722 368.874 465.355 366.946C466.17 365.986 465.983 363.239 466.83 362.309C467.197 361.905 468.684 359.837 469.201 359.837C475.698 360.477 481.242 363.322 487.538 365.045C490.685 365.905 494.375 365.863 497.847 366.45C499.369 366.708 501.143 367.689 502.301 366.533C503.285 365.549 504.216 364.501 504.987 363.339C505.832 362.065 506.484 360.654 506.759 359.14C507.456 355.297 505.7 351.48 503.991 347.969C502.661 345.238 499.631 341.705 496.904 340.383C494.351 339.146 491.26 339.591 488.647 338.488C486.706 337.668 485.12 336.029 483.059 335.595C480.812 335.121 478.569 336.178 476.411 336.958C472.963 338.204 469.28 338.786 465.618 338.665C463.545 338.597 461.468 338.304 459.404 338.504C457.339 338.702 455.216 339.475 453.944 341.119C452.402 343.11 452.434 345.873 451.548 348.232C450.589 350.791 448.581 352.802 447.26 355.192C445.719 357.984 446.977 361.613 446.444 364.759C446.206 366.166 445.97 367.637 446.399 368.997C446.979 370.848 448.644 372.106 450.215 373.239C451.303 374.022 450.576 374.394 451.665 375.177C452.408 375.715 453.241 376.695 454.092 376.608Z" fill="#5C49D8"/>
<path d="M481.969 384.017C482.086 384.539 482.374 385.016 482.633 385.494C483.337 386.791 483.857 388.174 484.179 389.592C484.252 389.92 484.315 390.262 484.224 390.581C484.1 391.014 483.712 391.326 483.319 391.569C482.166 392.284 480.809 392.645 479.474 393C479.138 393.089 478.742 393.166 478.464 392.956C478.172 392.737 478.174 392.326 478.228 391.985C478.482 390.374 479.28 388.891 479.57 387.286C479.808 385.967 479.696 384.6 479.956 383.287C480.04 382.869 480.168 382.443 480.451 382.115C480.734 381.787 481.2 381.575 481.642 381.682C482.063 381.784 482.4 382.232 482.234 382.62C482.023 383.103 481.843 383.459 481.969 384.017Z" fill="#FCC5B6"/>
<path d="M479.252 393.793C479.114 393.793 478.981 393.713 478.92 393.578C478.838 393.396 478.92 393.178 479.102 393.098L482.867 391.403C483.767 390.998 484.196 389.955 483.843 389.029L481.885 383.904C481.579 383.103 481.689 382.206 482.184 381.505C482.299 381.34 482.526 381.302 482.689 381.417C482.853 381.533 482.891 381.761 482.776 381.924C482.423 382.427 482.343 383.068 482.563 383.641L484.521 388.767C485.012 390.051 484.417 391.501 483.164 392.064L479.399 393.758C479.352 393.783 479.301 393.793 479.252 393.793Z" fill="black"/>
<path d="M455.048 373.06C455.782 373.347 456.504 373.752 456.954 374.401C457.48 375.156 457.568 376.138 457.489 377.056C457.41 377.982 457.161 378.935 456.526 379.614C455.944 380.234 455.1 380.551 454.258 380.658C452.783 380.844 451.241 380.418 450.07 379.5C449.539 379.084 449.067 378.537 448.936 377.875C448.798 377.181 449.053 376.474 449.305 375.812C449.575 375.098 448.426 374.112 448.695 373.398C448.869 372.937 450.426 372.587 450.966 372.459C452.216 372.162 453.89 372.606 455.048 373.06Z" fill="#FCC5B6"/>
<path d="M450.201 382.404C450.169 382.404 450.136 382.399 450.105 382.39C449.911 382.337 449.797 382.136 449.851 381.943C450.456 379.741 452.271 377.957 454.476 377.396C454.668 377.347 454.867 377.465 454.916 377.659C454.965 377.854 454.848 378.052 454.654 378.101C452.698 378.599 451.087 380.183 450.55 382.136C450.507 382.299 450.36 382.404 450.201 382.404Z" fill="black"/>
<path d="M463.355 424.668C460.339 424.668 457.327 423.957 454.683 422.514C448.875 419.349 445.041 412.765 445.142 406.135C445.146 405.954 445.293 405.809 445.473 405.809C445.474 405.809 445.476 405.809 445.478 405.809C445.66 405.812 445.806 405.961 445.803 406.145C445.705 412.536 449.401 418.881 454.999 421.934C460.598 424.986 467.915 424.646 473.208 421.086C473.36 420.984 473.565 421.024 473.666 421.177C473.767 421.329 473.727 421.534 473.575 421.636C470.582 423.646 466.965 424.668 463.355 424.668Z" fill="#1A1A1A"/>
<path d="M380.779 517.227C380.727 517.227 380.673 517.214 380.624 517.186C380.463 517.1 380.404 516.899 380.489 516.738C382.59 512.818 385.069 509.076 387.859 505.614C387.975 505.473 388.181 505.451 388.324 505.565C388.466 505.681 388.489 505.888 388.373 506.032C385.609 509.462 383.152 513.169 381.071 517.051C381.012 517.163 380.896 517.227 380.779 517.227Z" fill="white"/>
<path d="M555.66 508.622C555.623 508.622 555.585 508.615 555.548 508.603L547.728 505.779C547.557 505.718 547.468 505.529 547.531 505.355C547.592 505.183 547.781 505.094 547.954 505.157L555.771 507.981C555.943 508.042 556.032 508.231 555.971 508.403C555.922 508.538 555.796 508.622 555.66 508.622Z" fill="white"/>
<path d="M405.427 579.276C405.329 579.276 405.235 579.239 405.163 579.171C405.088 579.101 405.045 579.003 405.041 578.899L404.821 571.62C404.814 571.417 404.968 571.243 405.169 571.222L427.601 569.015C427.814 568.993 428.003 569.15 428.024 569.362C428.045 569.576 427.889 569.766 427.678 569.787L405.605 571.957L405.803 578.482L427.844 577.614C428.046 577.613 428.237 577.772 428.246 577.986C428.254 578.2 428.088 578.38 427.875 578.389L405.443 579.273C405.438 579.276 405.432 579.276 405.427 579.276Z" fill="white"/>
<path d="M384.005 584.403C383.872 584.403 383.743 584.335 383.671 584.212C380.846 579.394 381.171 572.877 384.461 568.364C384.586 568.192 384.829 568.153 385 568.279C385.173 568.406 385.21 568.649 385.084 568.821C381.971 573.091 381.663 579.257 384.337 583.818C384.445 584.002 384.384 584.24 384.199 584.349C384.139 584.386 384.071 584.403 384.005 584.403Z" fill="white"/>
<path d="M541.501 573.152C535.974 573.152 529.656 573.098 526.574 572.877C526.36 572.861 526.201 572.675 526.215 572.462C526.231 572.248 526.409 572.09 526.629 572.102C532.212 572.504 548.531 572.355 551.276 572.327L551.076 564.928L526.156 564.494C525.943 564.49 525.773 564.313 525.777 564.099C525.78 563.887 525.953 563.719 526.163 563.719C526.165 563.719 526.168 563.719 526.17 563.719L551.461 564.16C551.667 564.164 551.835 564.33 551.84 564.537L552.06 572.7C552.064 572.803 552.023 572.905 551.952 572.979C551.88 573.054 551.782 573.096 551.677 573.098C551.581 573.1 546.921 573.152 541.501 573.152Z" fill="white"/>
<path d="M567.704 576.614C567.631 576.614 567.555 576.593 567.491 576.549C567.313 576.43 567.265 576.19 567.382 576.011C569.729 572.469 569.671 567.559 567.243 564.071C567.12 563.896 567.162 563.654 567.337 563.531C567.512 563.409 567.753 563.451 567.875 563.626C570.482 567.368 570.545 572.635 568.027 576.439C567.95 576.552 567.828 576.614 567.704 576.614Z" fill="white"/>
<g opacity="0.2">
<path opacity="0.2" d="M358.878 594.403C496.091 594.403 607.323 591.25 607.323 587.362C607.323 583.473 496.091 580.321 358.878 580.321C221.666 580.321 110.433 583.473 110.433 587.362C110.433 591.25 221.666 594.403 358.878 594.403Z" fill="#5C49D8"/>
</g>
</svg>
